# xmcd CD database file
#
# Track frame offsets:
#	150
#	15118
#	26463
#	47078
#	74925
#	102395
#	116188
#	128014
#	141357
#	154827
#	167506
#	183599
#	196500
#	208391
#	222756
#	237011
#	249885
#	264599
#	274853
#	287916
#	299789
#	313469
#	326672
#	337915
#
# Disc length: 4705 seconds
#
# Revision: 0
# Processed by: cddbd v1.5.2PL0 Copyright (c) Steve Scherf et al.
# Submitted via: CDex 1.70beta2
#
DISCID=78125f18
DTITLE=Les Paul - The Jazzman
DYEAR=1900
DGENRE=Jazz
TTITLE0=Les Paul Spkeaks/Dream Dust
TTITLE1=Fine and dandy
TTITLE2=somebody oves me
TTITLE3=Just you, just me
TTITLE4=I found a new baby
TTITLE5=September in the rain
TTITLE6=You ought tobe in the pictures
TTITLE7=Moten swing
TTITLE8=Willow weep for me
TTITLE9=China stomp
TTITLE10=Star dust
TTITLE11=Honeysuckle rose
TTITLE12=I can't believe that you're in love with me
TTITLE13=Body and Soul
TTITLE14=Get happy
TTITLE15=Sweets
TTITLE16=These foolish things
TTITLE17=Embraceable you
TTITLE18=You brought a new kind of love to me
TTITLE19=Blue skies
TTITLE20=Begin the beguine
TTITLE21=Steel guitar rag
TTITLE22=Guitar boogie
TTITLE23=Moten Swing
EXTD=
EXTT0=
EXTT1=
EXTT2=
EXTT3=
EXTT4=
EXTT5=
EXTT6=
EXTT7=
EXTT8=
EXTT9=
EXTT10=
EXTT11=
EXTT12=
EXTT13=
EXTT14=
EXTT15=
EXTT16=
EXTT17=
EXTT18=
EXTT19=
EXTT20=
EXTT21=
EXTT22=
EXTT23=
PLAYORDER=
